<mxfile host="Electron" modified="2024-05-01T09:40:23.647Z" agent="Mozilla/5.0 (Windows NT 10.0; Win64; x64) AppleWebKit/537.36 (KHTML, like Gecko) draw.io/24.2.5 Chrome/120.0.6099.109 Electron/28.1.0 Safari/537.36" version="24.2.5" etag="LWkorUuFz5BgDsS9-iGY" type="device">
  <diagram id="BsKAggJHzZJeDUVv_Xdy" name="Pagina-1">
    <mxGraphModel dx="700" dy="414" grid="1" gridSize="10" guides="1" tooltips="1" connect="1" arrows="1" fold="1" page="1" pageScale="1" pageWidth="827" pageHeight="1169" math="0" shadow="0">
      <root>
        <mxCell id="0" />
        <mxCell id="1" parent="0" />
        <mxCell id="EQWHislEYRssnFFlGAhi-2" value="&lt;font style=&quot;font-size: 8px;&quot;&gt;Periodo storico&lt;/font&gt;" style="text;html=1;align=center;verticalAlign=middle;whiteSpace=wrap;rounded=0;" vertex="1" parent="1">
          <mxGeometry x="240.11" y="90.63" width="71" height="29" as="geometry" />
        </mxCell>
        <mxCell id="EQWHislEYRssnFFlGAhi-3" value="&lt;font style=&quot;font-size: 8px;&quot;&gt;Nome&lt;/font&gt;" style="text;html=1;align=center;verticalAlign=middle;whiteSpace=wrap;rounded=0;" vertex="1" parent="1">
          <mxGeometry x="190.55" y="90.63" width="63" height="30" as="geometry" />
        </mxCell>
        <mxCell id="EQWHislEYRssnFFlGAhi-4" value="&lt;span style=&quot;font-size: 8px;&quot;&gt;(1&lt;/span&gt;&lt;span style=&quot;font-size: 8px; background-color: initial;&quot;&gt;,N)&lt;/span&gt;" style="text;html=1;align=center;verticalAlign=middle;whiteSpace=wrap;rounded=1;strokeColor=none;glass=0;" vertex="1" parent="1">
          <mxGeometry x="352.99000000000007" y="131.00000000000003" width="22.5" height="6.75" as="geometry" />
        </mxCell>
        <mxCell id="EQWHislEYRssnFFlGAhi-5" value="&lt;font style=&quot;font-size: 8px;&quot;&gt;(1,1)&lt;/font&gt;" style="text;html=1;align=center;verticalAlign=middle;whiteSpace=wrap;rounded=1;strokeColor=none;glass=0;" vertex="1" parent="1">
          <mxGeometry x="450.69" y="130.99999999999994" width="22.5" height="6.75" as="geometry" />
        </mxCell>
        <mxCell id="EQWHislEYRssnFFlGAhi-6" style="edgeStyle=orthogonalEdgeStyle;rounded=0;orthogonalLoop=1;jettySize=auto;html=1;exitX=0.25;exitY=0;exitDx=0;exitDy=0;entryX=0.5;entryY=1;entryDx=0;entryDy=0;endArrow=oval;endFill=0;" edge="1" parent="1">
          <mxGeometry relative="1" as="geometry">
            <mxPoint x="222.74" y="115.20999999999998" as="targetPoint" />
            <mxPoint x="220.12" y="132.71" as="sourcePoint" />
          </mxGeometry>
        </mxCell>
        <mxCell id="EQWHislEYRssnFFlGAhi-7" style="edgeStyle=orthogonalEdgeStyle;rounded=0;orthogonalLoop=1;jettySize=auto;html=1;exitX=1;exitY=0;exitDx=0;exitDy=0;entryX=0.25;entryY=1;entryDx=0;entryDy=0;endArrow=oval;endFill=0;" edge="1" parent="1" source="EQWHislEYRssnFFlGAhi-8">
          <mxGeometry relative="1" as="geometry">
            <mxPoint x="274.74" y="115.20999999999998" as="targetPoint" />
            <mxPoint x="287.62" y="132.71" as="sourcePoint" />
          </mxGeometry>
        </mxCell>
        <mxCell id="EQWHislEYRssnFFlGAhi-8" value="CiviltÃ " style="whiteSpace=wrap;html=1;align=center;" vertex="1" parent="1">
          <mxGeometry x="215" y="132.75" width="70" height="30" as="geometry" />
        </mxCell>
        <mxCell id="EQWHislEYRssnFFlGAhi-9" value="" style="curved=1;endArrow=oval;html=1;rounded=0;entryX=0.642;entryY=0.924;entryDx=0;entryDy=0;entryPerimeter=0;endFill=1;" edge="1" parent="1">
          <mxGeometry width="50" height="50" relative="1" as="geometry">
            <mxPoint x="207.99" y="127.94999999999999" as="sourcePoint" />
            <mxPoint x="299.99" y="116.94999999999999" as="targetPoint" />
            <Array as="points">
              <mxPoint x="249.44" y="128.39999999999998" />
              <mxPoint x="299.44" y="128.39999999999998" />
            </Array>
          </mxGeometry>
        </mxCell>
        <mxCell id="EQWHislEYRssnFFlGAhi-10" value="&lt;font style=&quot;font-size: 8px;&quot;&gt;(1,N)&lt;/font&gt;" style="text;html=1;align=center;verticalAlign=middle;whiteSpace=wrap;rounded=1;strokeColor=none;glass=0;" vertex="1" parent="1">
          <mxGeometry x="180" y="162.75" width="50" height="15" as="geometry" />
        </mxCell>
        <mxCell id="EQWHislEYRssnFFlGAhi-11" value="&lt;p style=&quot;line-height: 70%;&quot;&gt;&lt;font style=&quot;font-size: 9px;&quot;&gt;Area Geografica&lt;/font&gt;&lt;/p&gt;" style="text;html=1;align=center;verticalAlign=middle;whiteSpace=wrap;rounded=0;" vertex="1" parent="1">
          <mxGeometry x="170" y="176.75" width="60" height="30" as="geometry" />
        </mxCell>
        <mxCell id="EQWHislEYRssnFFlGAhi-12" style="edgeStyle=orthogonalEdgeStyle;rounded=0;orthogonalLoop=1;jettySize=auto;html=1;exitX=0.25;exitY=1;exitDx=0;exitDy=0;endArrow=oval;endFill=0;" edge="1" parent="1">
          <mxGeometry relative="1" as="geometry">
            <mxPoint x="216.95000000000005" y="162.75" as="sourcePoint" />
            <mxPoint x="218.04000000000002" y="188.25" as="targetPoint" />
          </mxGeometry>
        </mxCell>
        <mxCell id="EQWHislEYRssnFFlGAhi-13" value="" style="endArrow=none;html=1;rounded=0;entryX=1;entryY=0.5;entryDx=0;entryDy=0;exitX=0;exitY=0.5;exitDx=0;exitDy=0;" edge="1" parent="1" target="EQWHislEYRssnFFlGAhi-8">
          <mxGeometry width="50" height="50" relative="1" as="geometry">
            <mxPoint x="553.19" y="147.75" as="sourcePoint" />
            <mxPoint x="354.9" y="132.75000000000006" as="targetPoint" />
          </mxGeometry>
        </mxCell>
        <mxCell id="EQWHislEYRssnFFlGAhi-14" value="Pertinenza" style="shape=rhombus;perimeter=rhombusPerimeter;whiteSpace=wrap;html=1;align=center;" vertex="1" parent="1">
          <mxGeometry x="369.44000000000005" y="122.13" width="92.5" height="51" as="geometry" />
        </mxCell>
        <mxCell id="EQWHislEYRssnFFlGAhi-38" value="&lt;font style=&quot;font-size: 9px;&quot;&gt;Descrizione&lt;/font&gt;" style="text;html=1;align=center;verticalAlign=middle;whiteSpace=wrap;rounded=0;" vertex="1" parent="1">
          <mxGeometry x="595.1300000000001" y="100.37" width="35" height="15" as="geometry" />
        </mxCell>
        <mxCell id="EQWHislEYRssnFFlGAhi-39" value="&lt;font style=&quot;font-size: 9px;&quot;&gt;Nome&lt;/font&gt;" style="text;html=1;align=center;verticalAlign=middle;whiteSpace=wrap;rounded=0;" vertex="1" parent="1">
          <mxGeometry x="540" y="100.37" width="35" height="17" as="geometry" />
        </mxCell>
        <mxCell id="EQWHislEYRssnFFlGAhi-101" value="Collezione" style="whiteSpace=wrap;html=1;align=center;" vertex="1" parent="1">
          <mxGeometry x="546.3800000000001" y="134" width="90" height="28.75" as="geometry" />
        </mxCell>
        <mxCell id="EQWHislEYRssnFFlGAhi-102" style="edgeStyle=orthogonalEdgeStyle;rounded=0;orthogonalLoop=1;jettySize=auto;html=1;exitX=0.75;exitY=0;exitDx=0;exitDy=0;endArrow=oval;endFill=1;" edge="1" parent="1">
          <mxGeometry relative="1" as="geometry">
            <mxPoint x="559.0100000000001" y="133.99" as="sourcePoint" />
            <mxPoint x="557.0100000000001" y="117.99000000000001" as="targetPoint" />
          </mxGeometry>
        </mxCell>
        <mxCell id="EQWHislEYRssnFFlGAhi-103" style="edgeStyle=orthogonalEdgeStyle;rounded=0;orthogonalLoop=1;jettySize=auto;html=1;exitX=0.75;exitY=0;exitDx=0;exitDy=0;endArrow=oval;endFill=0;" edge="1" parent="1">
          <mxGeometry relative="1" as="geometry">
            <mxPoint x="609.01" y="134" as="sourcePoint" />
            <mxPoint x="607.01" y="118" as="targetPoint" />
          </mxGeometry>
        </mxCell>
        <mxCell id="EQWHislEYRssnFFlGAhi-125" style="edgeStyle=orthogonalEdgeStyle;rounded=0;orthogonalLoop=1;jettySize=auto;html=1;exitX=1;exitY=0.5;exitDx=0;exitDy=0;endArrow=oval;endFill=0;" edge="1" parent="1">
          <mxGeometry relative="1" as="geometry">
            <mxPoint x="636.38" y="148.26" as="sourcePoint" />
            <mxPoint x="659.5" y="148.26" as="targetPoint" />
          </mxGeometry>
        </mxCell>
        <mxCell id="EQWHislEYRssnFFlGAhi-133" value="&lt;font style=&quot;font-size: 8px;&quot;&gt;Numero&lt;/font&gt;&lt;div style=&quot;line-height: 40%;&quot;&gt;&lt;font style=&quot;font-size: 8px;&quot;&gt;Oggetti&lt;/font&gt;&lt;/div&gt;" style="text;html=1;align=center;verticalAlign=middle;whiteSpace=wrap;rounded=1;strokeColor=none;" vertex="1" parent="1">
          <mxGeometry x="640.76" y="120.87" width="40" height="18" as="geometry" />
        </mxCell>
      </root>
    </mxGraphModel>
  </diagram>
</mxfile>
